<svg width="43" height="27" viewBox="0 0 43 27" fill="none" xmlns="http://www.w3.org/2000/svg">
<path d="M10.2115 12.5341H11.4808C12.0852 12.5341 12.533 12.3778 12.8242 12.0653C13.1154 11.7528 13.261 11.3381 13.261 10.821C13.261 10.321 13.1154 9.93182 12.8242 9.65341C12.5385 9.375 12.1429 9.2358 11.6374 9.2358C11.1813 9.2358 10.7995 9.36648 10.4918 9.62784C10.1841 9.88352 10.0302 10.2187 10.0302 10.6335H7.64835C7.64835 9.9858 7.81593 9.40625 8.1511 8.89489C8.49176 8.37784 8.96429 7.97443 9.56868 7.68466C10.1786 7.39489 10.8489 7.25 11.5797 7.25C12.8489 7.25 13.8434 7.56534 14.5632 8.19602C15.283 8.82102 15.6429 9.68466 15.6429 10.7869C15.6429 11.3551 15.4753 11.8778 15.1401 12.3551C14.8049 12.8324 14.3654 13.1989 13.8214 13.4545C14.4973 13.7045 15 14.0795 15.3297 14.5795C15.6648 15.0795 15.8324 15.6705 15.8324 16.3523C15.8324 17.4545 15.4423 18.3381 14.6621 19.0028C13.8874 19.6676 12.8599 20 11.5797 20C10.3819 20 9.4011 19.6733 8.63736 19.0199C7.87912 18.3665 7.5 17.5028 7.5 16.429H9.88187C9.88187 16.8949 10.0495 17.2756 10.3846 17.571C10.7253 17.8665 11.1429 18.0142 11.6374 18.0142C12.2033 18.0142 12.6456 17.8608 12.9643 17.554C13.2885 17.2415 13.4505 16.8295 13.4505 16.3182C13.4505 15.0795 12.7912 14.4602 11.4725 14.4602H10.2115V12.5341Z" fill="#24C879"/>
<path d="M25.5577 14.6989C25.5577 16.4148 25.2143 17.7273 24.5275 18.6364C23.8407 19.5455 22.8352 20 21.511 20C20.2033 20 19.2033 19.554 18.511 18.6619C17.8187 17.7699 17.4643 16.4915 17.4478 14.8267V12.5426C17.4478 10.8097 17.794 9.49432 18.4863 8.59659C19.1841 7.69886 20.1868 7.25 21.4945 7.25C22.8022 7.25 23.8022 7.69602 24.4945 8.58807C25.1868 9.47443 25.5412 10.75 25.5577 12.4148V14.6989ZM23.1758 12.1932C23.1758 11.1648 23.0385 10.4176 22.7637 9.9517C22.4945 9.48011 22.0714 9.24432 21.4945 9.24432C20.9341 9.24432 20.5192 9.46875 20.25 9.91761C19.9863 10.3608 19.8462 11.0568 19.8297 12.0057V15.0227C19.8297 16.0341 19.9615 16.7869 20.2253 17.2812C20.4945 17.7699 20.9231 18.0142 21.511 18.0142C22.0934 18.0142 22.5137 17.7784 22.772 17.3068C23.0302 16.8352 23.1648 16.1136 23.1758 15.142V12.1932Z" fill="#24C879"/>
<path d="M35.25 14.6989C35.25 16.4148 34.9066 17.7273 34.2198 18.6364C33.533 19.5455 32.5275 20 31.2033 20C29.8956 20 28.8956 19.554 28.2033 18.6619C27.511 17.7699 27.1566 16.4915 27.1401 14.8267V12.5426C27.1401 10.8097 27.4863 9.49432 28.1786 8.59659C28.8764 7.69886 29.8791 7.25 31.1868 7.25C32.4945 7.25 33.4945 7.69602 34.1868 8.58807C34.8791 9.47443 35.2335 10.75 35.25 12.4148V14.6989ZM32.8681 12.1932C32.8681 11.1648 32.7308 10.4176 32.456 9.9517C32.1868 9.48011 31.7637 9.24432 31.1868 9.24432C30.6264 9.24432 30.2115 9.46875 29.9423 9.91761C29.6786 10.3608 29.5385 11.0568 29.522 12.0057V15.0227C29.522 16.0341 29.6538 16.7869 29.9176 17.2812C30.1868 17.7699 30.6154 18.0142 31.2033 18.0142C31.7857 18.0142 32.206 17.7784 32.4643 17.3068C32.7225 16.8352 32.8571 16.1136 32.8681 15.142V12.1932Z" fill="#24C879"/>

<filter id="filter0_d_205_438" x="0.5" y="0.25" width="41.75" height="26.75" filterUnits="userSpaceOnUse" color-interpolation-filters="sRGB">
<feFlood flood-opacity="0" result="BackgroundImageFix"/>
<feColorMatrix in="SourceAlpha" type="matrix" values="0 0 0 0 0 0 0 0 0 0 0 0 0 0 0 0 0 0 127 0" result="hardAlpha"/>
<feOffset/>
<feGaussianBlur stdDeviation="3.5"/>
<feColorMatrix type="matrix" values="0 0 0 0 0.266667 0 0 0 0 0.776471 0 0 0 0 0.533333 0 0 0 1 0"/>
<feBlend mode="normal" in2="BackgroundImageFix" result="effect1_dropShadow_205_438"/>
<feBlend mode="normal" in="SourceGraphic" in2="effect1_dropShadow_205_438" result="shape"/>
</filter>

</svg>
