<svg width="44" height="37" viewBox="0 0 44 37" fill="none" xmlns="http://www.w3.org/2000/svg">
<g filter="url(#filter0_d_205_444)">
<path d="M22 16.8815C22.8847 16.8815 23.725 16.7765 24.3664 16.5859L34.7779 13.4905C35.9946 13.1286 36.25 12.5159 36.25 12.0656C36.25 11.6154 35.9945 11.0027 34.7778 10.6411L24.3664 7.54563C23.7251 7.35498 22.8847 7.25 22 7.25C21.1154 7.25 20.2751 7.35492 19.6336 7.54563L9.22226 10.6411C8.00539 11.0028 7.75 11.6154 7.75 12.0656C7.74989 12.5159 8.00539 13.1286 9.22215 13.4904L19.6337 16.5858C20.2751 16.7766 21.1154 16.8815 22 16.8815Z" fill="#FED888"/>
<path d="M22.0012 18.5365C20.9432 18.5365 19.959 18.4102 19.155 18.1711L13.1172 16.376V18.713C13.1172 19.4875 13.6252 20.5786 16.0456 21.3782C17.6487 21.9078 19.7638 22.1995 22.0011 22.1995C24.2384 22.1995 26.3535 21.9078 27.9566 21.3782C30.377 20.5787 30.885 19.4876 30.885 18.713V16.376L24.8472 18.1711C24.0432 18.4102 23.059 18.5365 22.0012 18.5365Z" fill="#FED888"/>
<path d="M34.4615 21.1404V15.3125L32.7916 15.809V21.1405C31.7532 21.487 31.0029 22.4605 31.0029 23.6049V27.1501C31.0029 28.5837 32.1799 29.7501 33.6265 29.7501C35.0733 29.7501 36.2502 28.5838 36.2502 27.1501V23.6049C36.2502 22.4604 35.4999 21.487 34.4615 21.1404Z" fill="#FED888"/>
</g>
<defs>
<filter id="filter0_d_205_444" x="0.75" y="0.25" width="42.5" height="36.5" filterUnits="userSpaceOnUse" color-interpolation-filters="sRGB">
<feFlood flood-opacity="0" result="BackgroundImageFix"/>
<feColorMatrix in="SourceAlpha" type="matrix" values="0 0 0 0 0 0 0 0 0 0 0 0 0 0 0 0 0 0 127 0" result="hardAlpha"/>
<feOffset/>
<feGaussianBlur stdDeviation="3.5"/>
<feColorMatrix type="matrix" values="0 0 0 0 0.996078 0 0 0 0 0.847059 0 0 0 0 0.533333 0 0 0 1 0"/>
<feBlend mode="normal" in2="BackgroundImageFix" result="effect1_dropShadow_205_444"/>
<feBlend mode="normal" in="SourceGraphic" in2="effect1_dropShadow_205_444" result="shape"/>
</filter>
</defs>
</svg>
