<svg width="13" height="16" viewBox="0 0 13 16" fill="none" xmlns="http://www.w3.org/2000/svg">
<path d="M0.920341 0.0822344L12.6972 7.47931C12.7894 7.5325 12.8658 7.60855 12.9189 7.6999C12.9721 7.79124 13 7.8947 13 8C13 8.10529 12.9721 8.20875 12.9189 8.3001C12.8658 8.39145 12.7894 8.46749 12.6972 8.52069L0.920341 15.9178C0.827166 15.9714 0.721273 15.9997 0.613394 16C0.505516 16.0003 0.399486 15.9724 0.306051 15.9192C0.212616 15.866 0.135097 15.7895 0.081351 15.6972C0.0276048 15.605 -0.000458404 15.5004 5.66345e-06 15.3941V0.603528C-2.62472e-05 0.497367 0.0283519 0.393076 0.0822743 0.301187C0.136197 0.209298 0.213754 0.133064 0.307116 0.0801819C0.400478 0.0273001 0.506338 -0.000356908 0.614008 3.47745e-06C0.721678 0.000363863 0.827345 0.0287288 0.920341 0.0822344Z" fill="white"/>
</svg>
