<svg width="43" height="38" viewBox="0 0 43 38" fill="none" xmlns="http://www.w3.org/2000/svg">
<g filter="url(#filter0_d_205_441)">
<path d="M14.0771 19.6938H11.823V10.6793L9.13216 11.5451V9.64353L13.8353 7.89566H14.0771V19.6938Z" fill="#29B2E6"/>
<path d="M25.4176 14.8224C25.4176 16.4516 25.0927 17.6978 24.4427 18.5609C23.7927 19.424 22.8412 19.8556 21.5881 19.8556C20.3505 19.8556 19.4042 19.4321 18.749 18.5852C18.0939 17.7382 17.7585 16.5244 17.7429 14.9438V12.7751C17.7429 11.1298 18.0705 9.88089 18.7256 9.02853C19.386 8.17618 20.3349 7.75 21.5725 7.75C22.81 7.75 23.7563 8.17348 24.4115 9.02044C25.0667 9.86201 25.402 11.0731 25.4176 12.6537V14.8224ZM23.1636 12.4434C23.1636 11.4669 23.0336 10.7575 22.7736 10.3152C22.5188 9.8674 22.1184 9.64353 21.5725 9.64353C21.0421 9.64353 20.6495 9.85662 20.3947 10.2828C20.1451 10.7036 20.0125 11.3644 19.9969 12.2653V15.1299C19.9969 16.0901 20.1217 16.8049 20.3713 17.2743C20.6261 17.7382 21.0317 17.9702 21.5881 17.9702C22.1392 17.9702 22.537 17.7463 22.7814 17.2986C23.0258 16.8508 23.1532 16.1657 23.1636 15.2432V12.4434Z" fill="#29B2E6"/>
<path d="M34.5899 14.8224C34.5899 16.4516 34.2649 17.6978 33.615 18.5609C32.965 19.424 32.0135 19.8556 30.7603 19.8556C29.5228 19.8556 28.5765 19.4321 27.9213 18.5852C27.2661 17.7382 26.9307 16.5244 26.9152 14.9438V12.7751C26.9152 11.1298 27.2427 9.88089 27.8979 9.02853C28.5583 8.17618 29.5072 7.75 30.7447 7.75C31.9823 7.75 32.9286 8.17348 33.5838 9.02044C34.2389 9.86201 34.5743 11.0731 34.5899 12.6537V14.8224ZM32.3358 12.4434C32.3358 11.4669 32.2059 10.7575 31.9459 10.3152C31.6911 9.8674 31.2907 9.64353 30.7447 9.64353C30.2144 9.64353 29.8218 9.85662 29.567 10.2828C29.3174 10.7036 29.1848 11.3644 29.1692 12.2653V15.1299C29.1692 16.0901 29.294 16.8049 29.5436 17.2743C29.7984 17.7382 30.204 17.9702 30.7603 17.9702C31.3115 17.9702 31.7093 17.7463 31.9537 17.2986C32.1981 16.8508 32.3254 16.1657 32.3358 15.2432V12.4434Z" fill="#29B2E6"/>
<path d="M10.0652 25.8079C10.6345 25.8079 11.0888 26.0038 11.4281 26.3957C11.7675 26.7875 11.9371 27.3198 11.9371 27.9928V28.0524C11.9371 28.7168 11.7483 29.2491 11.3706 29.6495C10.993 30.0498 10.4853 30.25 9.84767 30.25C9.20729 30.25 8.69689 30.0342 8.31649 29.6026C7.93883 29.1682 7.75 28.5791 7.75 27.8352V27.6307C7.75547 26.5944 7.92378 25.7838 8.25492 25.1989C8.58879 24.6112 9.08961 24.2406 9.75736 24.0873C10.1077 24.0078 10.3334 23.9297 10.4347 23.8531C10.5359 23.7736 10.5866 23.6643 10.5866 23.5251H11.5472C11.5472 23.9709 11.4308 24.3059 11.1982 24.5302C10.9683 24.7545 10.5578 24.9277 9.96672 25.0498C9.61642 25.1237 9.34001 25.267 9.1375 25.48C8.93499 25.6929 8.79815 25.9925 8.727 26.3786C9.10466 25.9982 9.55074 25.8079 10.0652 25.8079ZM9.83946 26.8045C9.55758 26.8045 9.33591 26.9025 9.17445 27.0984C9.01572 27.2943 8.93635 27.6123 8.93635 28.0524C8.93635 28.4442 9.01435 28.7438 9.17034 28.951C9.32633 29.1555 9.55211 29.2577 9.84767 29.2577C10.135 29.2577 10.3567 29.1569 10.5127 28.9553C10.6687 28.7537 10.748 28.457 10.7508 28.0652V27.9629C10.7508 27.5853 10.67 27.2986 10.5086 27.1026C10.3499 26.9039 10.1268 26.8045 9.83946 26.8045Z" fill="#29B2E6"/>
<path d="M15.2212 30.1606C15.1664 30.0498 15.1267 29.9121 15.1021 29.7474C14.8148 30.0796 14.4412 30.2457 13.9814 30.2457C13.5463 30.2457 13.1851 30.1151 12.8977 29.8539C12.6131 29.5927 12.4708 29.2633 12.4708 28.8658C12.4708 28.3775 12.6446 28.0027 12.9921 27.7415C13.3424 27.4803 13.8473 27.3482 14.5069 27.3454H15.0528V27.0813C15.0528 26.8684 14.9995 26.698 14.8928 26.5703C14.7888 26.4425 14.6232 26.3786 14.396 26.3786C14.1963 26.3786 14.0389 26.4283 13.924 26.5277C13.8118 26.6271 13.7557 26.7633 13.7557 26.9365H12.5693C12.5693 26.6696 12.6487 26.4226 12.8074 26.1955C12.9661 25.9683 13.1905 25.7909 13.4806 25.6631C13.7707 25.5325 14.0964 25.4672 14.4576 25.4672C15.005 25.4672 15.4387 25.6106 15.7589 25.8974C16.0818 26.1813 16.2433 26.5816 16.2433 27.0984V29.0958C16.246 29.5331 16.3049 29.8639 16.4198 30.0882V30.1606H15.2212ZM14.2401 29.3045C14.4152 29.3045 14.5767 29.2648 14.7244 29.1853C14.8722 29.1029 14.9817 28.9936 15.0528 28.8573V28.0652H14.6095C14.0156 28.0652 13.6996 28.2781 13.6612 28.704L13.6571 28.7764C13.6571 28.9297 13.7091 29.0561 13.8131 29.1555C13.9171 29.2548 14.0594 29.3045 14.2401 29.3045Z" fill="#29B2E6"/>
<path d="M21.0175 25.5524V30.1606H19.8311V26.549H18.7843L18.7104 27.9715C18.6639 28.7296 18.5202 29.2818 18.2794 29.6282C18.0386 29.9746 17.6801 30.152 17.2039 30.1606H16.8016L16.7893 29.1597L16.9371 29.1469C17.1505 29.1299 17.3065 28.9993 17.405 28.7551C17.5036 28.5109 17.5651 28.095 17.5898 27.5072L17.6719 25.5524H21.0175Z" fill="#29B2E6"/>
<path d="M25.7957 25.5524V30.1606H24.6094V26.549H23.5626L23.4887 27.9715C23.4422 28.7296 23.2985 29.2818 23.0577 29.6282C22.8168 29.9746 22.4583 30.152 21.9821 30.1606H21.5798L21.5675 29.1597L21.7153 29.1469C21.9288 29.1299 22.0848 28.9993 22.1833 28.7551C22.2818 28.5109 22.3434 28.095 22.368 27.5072L22.4501 25.5524H25.7957Z" fill="#29B2E6"/>
<path d="M26.5264 27.8139C26.5264 27.3568 26.6112 26.9493 26.7809 26.5916C26.9506 26.2338 27.1942 25.957 27.5116 25.7611C27.8318 25.5652 28.2026 25.4672 28.6241 25.4672C29.2234 25.4672 29.7119 25.6574 30.0896 26.0379C30.47 26.4184 30.6821 26.9351 30.7259 27.5882L30.7341 27.9033C30.7341 28.6103 30.5439 29.1782 30.1635 29.6069C29.7831 30.0328 29.2727 30.2457 28.6323 30.2457C27.9919 30.2457 27.4801 30.0328 27.097 29.6069C26.7166 29.181 26.5264 28.6018 26.5264 27.8692V27.8139ZM27.7128 27.9033C27.7128 28.3406 27.7921 28.6756 27.9508 28.9084C28.1096 29.1384 28.3367 29.2534 28.6323 29.2534C28.9196 29.2534 29.144 29.1398 29.3055 28.9127C29.467 28.6827 29.5477 28.3164 29.5477 27.8139C29.5477 27.3851 29.467 27.053 29.3055 26.8173C29.144 26.5816 28.9169 26.4638 28.6241 26.4638C28.334 26.4638 28.1096 26.5816 27.9508 26.8173C27.7921 27.0501 27.7128 27.4121 27.7128 27.9033Z" fill="#29B2E6"/>
<path d="M31.5428 30.1606V25.5524H33.3982C34.003 25.5524 34.4669 25.6631 34.7898 25.8846C35.1128 26.106 35.2742 26.424 35.2742 26.8386C35.2742 27.0515 35.2058 27.2432 35.069 27.4135C34.9349 27.5811 34.7378 27.7102 34.4778 27.8011C34.7953 27.8636 35.0443 27.9871 35.225 28.1716C35.4083 28.3533 35.5 28.5777 35.5 28.8445C35.5 29.2733 35.344 29.5998 35.032 29.8241C34.7228 30.0484 34.2726 30.1606 33.6815 30.1606H31.5428ZM32.7291 28.2483V29.1767H33.6856C34.1043 29.1767 34.3136 29.0248 34.3136 28.721C34.3136 28.4116 34.1139 28.254 33.7143 28.2483H32.7291ZM32.7291 27.4221H33.4639C33.8799 27.4164 34.0879 27.2773 34.0879 27.0047C34.0879 26.8372 34.0304 26.7179 33.9155 26.6469C33.8033 26.576 33.6308 26.5405 33.3982 26.5405H32.7291V27.4221Z" fill="#29B2E6"/>
</g>
<defs>
<filter id="filter0_d_205_441" x="0.75" y="0.75" width="41.75" height="36.5" filterUnits="userSpaceOnUse" color-interpolation-filters="sRGB">
<feFlood flood-opacity="0" result="BackgroundImageFix"/>
<feColorMatrix in="SourceAlpha" type="matrix" values="0 0 0 0 0 0 0 0 0 0 0 0 0 0 0 0 0 0 127 0" result="hardAlpha"/>
<feOffset/>
<feGaussianBlur stdDeviation="3.5"/>
<feColorMatrix type="matrix" values="0 0 0 0 0.160784 0 0 0 0 0.698039 0 0 0 0 0.901961 0 0 0 1 0"/>
<feBlend mode="normal" in2="BackgroundImageFix" result="effect1_dropShadow_205_441"/>
<feBlend mode="normal" in="SourceGraphic" in2="effect1_dropShadow_205_441" result="shape"/>
</filter>
</defs>
</svg>
